<svg width="116" height="19" viewBox="0 0 116 19" fill="none" xmlns="http://www.w3.org/2000/svg">
<path d="M0.839998 17.64L2.28 17.28V7.08H0.599998V6.48H2.28V5.28C2.28 4.432 2.48 3.672 2.88 3C3.296 2.328 3.88 1.8 4.632 1.416C5.4 1.032 6.296 0.839996 7.32 0.839996C8.152 0.839996 8.864 0.967996 9.456 1.224C10.064 1.464 10.52 1.792 10.824 2.208C11.128 2.608 11.28 3.032 11.28 3.48C11.28 4.024 11.112 4.464 10.776 4.8C10.456 5.12 10.024 5.28 9.48 5.28C9.256 5.28 9.032 5.264 8.808 5.232L8.52 5.16V1.44L8.304 1.392C8.24 1.376 8.168 1.36 8.088 1.344C8.008 1.328 7.912 1.32 7.8 1.32C7.256 1.32 6.84 1.608 6.552 2.184C6.264 2.744 6.12 3.776 6.12 5.28V6.48H9.96V7.08H6.12V17.28L7.56 17.64V18H0.839998V17.64Z" fill="white"/>
<path d="M11.3897 17.64L12.8297 17.28V6.72L11.3897 6.36V6H14.5097C15.9497 6 16.6697 6.72 16.6697 8.16V17.28L18.1097 17.64V18H11.3897V17.64ZM14.5097 4.56C14.0297 4.56 13.6297 4.4 13.3097 4.08C12.9897 3.76 12.8297 3.36 12.8297 2.88C12.8297 2.4 12.9897 2 13.3097 1.68C13.6297 1.36 14.0297 1.2 14.5097 1.2C14.9897 1.2 15.3897 1.36 15.7097 1.68C16.0297 2 16.1897 2.4 16.1897 2.88C16.1897 3.36 16.0297 3.76 15.7097 4.08C15.3897 4.4 14.9897 4.56 14.5097 4.56Z" fill="white"/>
<path d="M19.5459 17.64L20.9859 17.28V6.72L19.5459 6.36V6H21.7059C22.6499 6 23.3939 6.304 23.9379 6.912C24.1459 7.152 24.3219 7.448 24.4659 7.8C24.7059 7.448 25.0019 7.128 25.3539 6.84C26.1539 6.2 27.0499 5.88 28.0419 5.88C28.8899 5.88 29.5219 6.08 29.9379 6.48C30.3699 6.864 30.5859 7.424 30.5859 8.16C30.5859 8.704 30.4179 9.144 30.0819 9.48C29.7619 9.8 29.3299 9.96 28.7859 9.96C28.5619 9.96 28.3379 9.944 28.1139 9.912L27.8259 9.84V6.48C27.0099 6.48 26.2659 6.8 25.5939 7.44C25.2739 7.76 25.0179 8.08 24.8259 8.4V17.28L26.2659 17.64V18H19.5459V17.64Z" fill="white"/>
<path d="M37.5375 18.36C36.5455 18.36 35.6575 18.144 34.8735 17.712C34.4895 17.504 34.1775 17.28 33.9375 17.04C33.6815 17.392 33.4015 17.664 33.0975 17.856C32.9535 17.952 32.7935 18.04 32.6175 18.12H32.0175V14.04H32.9775C33.1855 14.712 33.4895 15.336 33.8895 15.912C34.7375 17.144 35.7935 17.76 37.0575 17.76C37.7295 17.76 38.2335 17.6 38.5695 17.28C38.9215 16.944 39.0975 16.464 39.0975 15.84C39.0975 15.312 38.8575 14.872 38.3775 14.52C37.9135 14.152 37.1775 13.704 36.1695 13.176C35.3055 12.744 34.6015 12.36 34.0575 12.024C33.5295 11.672 33.0735 11.24 32.6895 10.728C32.3215 10.2 32.1375 9.584 32.1375 8.88C32.1375 7.92 32.5455 7.144 33.3615 6.552C34.1935 5.944 35.4655 5.64 37.1775 5.64C38.0255 5.64 38.8095 5.864 39.5295 6.312C39.8815 6.52 40.1855 6.736 40.4415 6.96C40.6495 6.672 40.9295 6.4 41.2815 6.144C41.5535 5.984 41.7135 5.896 41.7615 5.88H42.3615V9.96H41.4015C41.1615 9.272 40.8655 8.656 40.5135 8.112C39.7135 6.864 38.7615 6.24 37.6575 6.24C37.2255 6.24 36.8575 6.4 36.5535 6.72C36.2495 7.04 36.0975 7.44 36.0975 7.92C36.0975 8.528 36.3535 9.04 36.8655 9.456C37.3775 9.856 38.1535 10.32 39.1935 10.848C40.0415 11.28 40.7135 11.664 41.2095 12C41.7215 12.32 42.1535 12.72 42.5055 13.2C42.8735 13.68 43.0575 14.24 43.0575 14.88C43.0575 17.2 41.2175 18.36 37.5375 18.36Z" fill="white"/>
<path d="M51.0984 18.36C50.0424 18.36 49.1224 18.168 48.3384 17.784C47.5704 17.4 46.9784 16.872 46.5624 16.2C46.1464 15.528 45.9384 14.768 45.9384 13.92V6.6H44.2584V6H45.9384V4.8C45.9384 3.36 46.6584 2.64 48.0984 2.64H49.7784V6H53.1384V6.6H49.7784V13.92C49.7784 15.392 49.9304 16.4 50.2344 16.944C50.5384 17.488 50.9864 17.76 51.5784 17.76C52.1544 17.76 52.6584 17.48 53.0904 16.92C53.5224 16.36 53.7384 15.6 53.7384 14.64H54.3384C54.3384 15.824 54.0424 16.744 53.4504 17.4C52.8584 18.04 52.0744 18.36 51.0984 18.36Z" fill="white"/>
<path d="M55.6631 17.64L57.1031 17.28V1.92L55.6631 1.56V1.2H58.7831C60.2231 1.2 60.9431 1.92 60.9431 3.36V7.2C61.1831 6.88 61.4311 6.624 61.6871 6.432C62.3751 5.904 63.1671 5.64 64.0631 5.64C64.9591 5.64 65.7591 5.832 66.4631 6.216C67.1831 6.584 67.7431 7.072 68.1431 7.68C68.5431 8.288 68.7431 8.928 68.7431 9.6V17.28L70.1831 17.64V18H67.0631C65.6231 18 64.9031 17.28 64.9031 15.84V9.6C64.9031 8.592 64.7191 7.824 64.3511 7.296C63.9991 6.752 63.5831 6.48 63.1031 6.48C62.4951 6.48 61.9511 6.8 61.4711 7.44C61.2631 7.712 61.0871 8.032 60.9431 8.4V17.28L62.3831 17.64V18H55.6631V17.64Z" fill="white"/>
<path d="M76.3041 18.36C74.8801 18.36 73.7841 18.056 73.0161 17.448C72.2481 16.84 71.8641 16.064 71.8641 15.12C71.8641 14.496 72.0001 13.88 72.2721 13.272C72.3841 12.984 72.5281 12.72 72.7041 12.48C73.3601 12.32 74.0721 12.176 74.8401 12.048C76.5681 11.76 78.0961 11.584 79.4241 11.52V10.8C79.4241 9.024 79.2081 7.8 78.7761 7.128C78.3441 6.456 77.6801 6.12 76.7841 6.12C76.4481 6.12 76.1601 6.16 75.9201 6.24L75.5841 6.36V9.96L75.2721 10.032C75.0161 10.064 74.8001 10.08 74.6241 10.08C74.0801 10.08 73.6401 9.92 73.3041 9.6C72.9841 9.264 72.8241 8.824 72.8241 8.28C72.8241 7.544 73.1921 6.92 73.9281 6.408C74.6801 5.896 75.7921 5.64 77.2641 5.64C78.5121 5.64 79.5841 5.864 80.4801 6.312C81.3921 6.744 82.0801 7.352 82.5441 8.136C83.0241 8.904 83.2641 9.792 83.2641 10.8V17.28L84.7041 17.64V18H82.5441C81.5841 18 80.8401 17.704 80.3121 17.112C80.0881 16.872 79.9121 16.568 79.7841 16.2C79.5601 16.6 79.2961 16.96 78.9921 17.28C78.2721 18 77.3761 18.36 76.3041 18.36ZM77.2641 17.52C77.8561 17.52 78.3921 17.2 78.8721 16.56C79.0481 16.32 79.2321 16 79.4241 15.6V12.12C78.6881 12.12 77.9841 12.16 77.3121 12.24C76.8161 12.304 76.4801 12.344 76.3041 12.36C76.2241 12.536 76.1441 12.776 76.0641 13.08C75.9041 13.688 75.8241 14.288 75.8241 14.88C75.8241 15.776 75.9601 16.44 76.2321 16.872C76.5041 17.304 76.8481 17.52 77.2641 17.52Z" fill="white"/>
<path d="M86.1553 17.64L87.5953 17.28V6.72L86.1553 6.36V6H88.3153C89.2593 6 90.0033 6.304 90.5473 6.912C90.7553 7.152 90.9313 7.448 91.0753 7.8C91.2993 7.384 91.5633 7.024 91.8673 6.72C92.5873 6 93.4833 5.64 94.5553 5.64C95.4513 5.64 96.2513 5.832 96.9553 6.216C97.6753 6.584 98.2353 7.072 98.6353 7.68C99.0353 8.288 99.2353 8.928 99.2353 9.6V17.28L100.675 17.64V18H97.5553C96.1153 18 95.3953 17.28 95.3953 15.84V9.6C95.3953 8.592 95.2113 7.824 94.8433 7.296C94.4913 6.752 94.0753 6.48 93.5953 6.48C92.9873 6.48 92.4433 6.8 91.9633 7.44C91.7553 7.712 91.5793 8.032 91.4353 8.4V17.28L92.8753 17.64V18H86.1553V17.64Z" fill="white"/>
<path d="M107.036 18.36C106.092 18.36 105.252 18.12 104.516 17.64C103.78 17.144 103.196 16.424 102.764 15.48C102.332 14.52 102.116 13.36 102.116 12C102.116 9.952 102.588 8.384 103.532 7.296C104.492 6.192 105.78 5.64 107.396 5.64C108.164 5.64 108.836 5.8 109.412 6.12C109.652 6.232 109.9 6.392 110.156 6.6V1.92L108.716 1.56V1.2H111.836C113.276 1.2 113.996 1.92 113.996 3.36V17.28L115.436 17.64V18H113.276C112.316 18 111.572 17.704 111.044 17.112C110.82 16.872 110.644 16.568 110.516 16.2C110.308 16.6 110.044 16.96 109.724 17.28C109.004 18 108.108 18.36 107.036 18.36ZM107.996 17.52C108.588 17.52 109.124 17.2 109.604 16.56C109.78 16.32 109.964 16 110.156 15.6V7.32C109.98 7.144 109.796 6.984 109.604 6.84C109.172 6.52 108.756 6.36 108.356 6.36C107.668 6.36 107.132 6.76 106.748 7.56C106.38 8.36 106.196 9.84 106.196 12C106.196 14.064 106.364 15.504 106.7 16.32C107.052 17.12 107.484 17.52 107.996 17.52Z" fill="white"/>
</svg>
