<svg width="174" height="27" viewBox="0 0 174 27" fill="none" xmlns="http://www.w3.org/2000/svg">
<path d="M1.26 25.46L3.42 24.92V9.62H0.900002V8.72H3.42V6.92C3.42 5.648 3.72 4.508 4.32 3.5C4.944 2.492 5.82 1.7 6.948 1.124C8.1 0.548002 9.444 0.260002 10.98 0.260002C12.228 0.260002 13.296 0.452002 14.184 0.836001C15.096 1.196 15.78 1.688 16.236 2.312C16.692 2.912 16.92 3.548 16.92 4.22C16.92 5.036 16.668 5.696 16.164 6.2C15.684 6.68 15.036 6.92 14.22 6.92C13.884 6.92 13.548 6.896 13.212 6.848L12.78 6.74V1.16L12.456 1.088C12.36 1.064 12.252 1.04 12.132 1.016C12.012 0.992002 11.868 0.980001 11.7 0.980001C10.884 0.980001 10.26 1.412 9.828 2.276C9.396 3.116 9.18 4.664 9.18 6.92V8.72H14.94V9.62H9.18V24.92L11.34 25.46V26H1.26V25.46Z" fill="#1E1E1E"/>
<path d="M17.0845 25.46L19.2445 24.92V9.08L17.0845 8.54V8H21.7645C23.9245 8 25.0045 9.08 25.0045 11.24V24.92L27.1645 25.46V26H17.0845V25.46ZM21.7645 5.84C21.0445 5.84 20.4445 5.6 19.9645 5.12C19.4845 4.64 19.2445 4.04 19.2445 3.32C19.2445 2.6 19.4845 2 19.9645 1.52C20.4445 1.04 21.0445 0.800002 21.7645 0.800002C22.4845 0.800002 23.0845 1.04 23.5645 1.52C24.0445 2 24.2845 2.6 24.2845 3.32C24.2845 4.04 24.0445 4.64 23.5645 5.12C23.0845 5.6 22.4845 5.84 21.7645 5.84Z" fill="#1E1E1E"/>
<path d="M29.3189 25.46L31.4789 24.92V9.08L29.3189 8.54V8H32.5589C33.9749 8 35.0909 8.456 35.9069 9.368C36.2189 9.728 36.4829 10.172 36.6989 10.7C37.0589 10.172 37.5029 9.692 38.0309 9.26C39.2309 8.3 40.5749 7.82 42.0629 7.82C43.3349 7.82 44.2829 8.12 44.9069 8.72C45.5549 9.296 45.8789 10.136 45.8789 11.24C45.8789 12.056 45.6269 12.716 45.1229 13.22C44.6429 13.7 43.9949 13.94 43.1789 13.94C42.8429 13.94 42.5069 13.916 42.1709 13.868L41.7389 13.76V8.72C40.5149 8.72 39.3989 9.2 38.3909 10.16C37.9109 10.64 37.5269 11.12 37.2389 11.6V24.92L39.3989 25.46V26H29.3189V25.46Z" fill="#1E1E1E"/>
<path d="M56.3063 26.54C54.8183 26.54 53.4863 26.216 52.3103 25.568C51.7343 25.256 51.2663 24.92 50.9062 24.56C50.5223 25.088 50.1023 25.496 49.6463 25.784C49.4303 25.928 49.1903 26.06 48.9263 26.18H48.0263V20.06H49.4663C49.7783 21.068 50.2343 22.004 50.8343 22.868C52.1063 24.716 53.6903 25.64 55.5863 25.64C56.5943 25.64 57.3503 25.4 57.8543 24.92C58.3823 24.416 58.6463 23.696 58.6463 22.76C58.6463 21.968 58.2862 21.308 57.5662 20.78C56.8703 20.228 55.7663 19.556 54.2543 18.764C52.9583 18.116 51.9023 17.54 51.0863 17.036C50.2943 16.508 49.6103 15.86 49.0343 15.092C48.4823 14.3 48.2063 13.376 48.2063 12.32C48.2063 10.88 48.8183 9.716 50.0423 8.828C51.2903 7.916 53.1983 7.46 55.7663 7.46C57.0383 7.46 58.2143 7.796 59.2943 8.468C59.8223 8.78 60.2783 9.104 60.6623 9.44C60.9743 9.008 61.3943 8.6 61.9223 8.216C62.3303 7.976 62.5703 7.844 62.6423 7.82H63.5423V13.94H62.1023C61.7423 12.908 61.2983 11.984 60.7703 11.168C59.5703 9.296 58.1423 8.36 56.4863 8.36C55.8383 8.36 55.2863 8.6 54.8303 9.08C54.3743 9.56 54.1463 10.16 54.1463 10.88C54.1463 11.792 54.5303 12.56 55.2983 13.184C56.0663 13.784 57.2303 14.48 58.7903 15.272C60.0623 15.92 61.0703 16.496 61.8143 17C62.5823 17.48 63.2303 18.08 63.7583 18.8C64.3103 19.52 64.5863 20.36 64.5863 21.32C64.5863 24.8 61.8263 26.54 56.3063 26.54Z" fill="#1E1E1E"/>
<path d="M76.6477 26.54C75.0637 26.54 73.6837 26.252 72.5077 25.676C71.3557 25.1 70.4677 24.308 69.8437 23.3C69.2197 22.292 68.9077 21.152 68.9077 19.88V8.9H66.3877V8H68.9077V6.2C68.9077 4.04 69.9877 2.96 72.1477 2.96H74.6677V8H79.7077V8.9H74.6677V19.88C74.6677 22.088 74.8957 23.6 75.3517 24.416C75.8077 25.232 76.4797 25.64 77.3677 25.64C78.2317 25.64 78.9877 25.22 79.6357 24.38C80.2837 23.54 80.6077 22.4 80.6077 20.96H81.5077C81.5077 22.736 81.0637 24.116 80.1757 25.1C79.2877 26.06 78.1117 26.54 76.6477 26.54Z" fill="#1E1E1E"/>
<path d="M83.4947 25.46L85.6547 24.92V1.88L83.4947 1.34V0.800002H88.1747C90.3347 0.800002 91.4147 1.88 91.4147 4.04V9.8C91.7747 9.32 92.1467 8.936 92.5307 8.648C93.5627 7.856 94.7507 7.46 96.0947 7.46C97.4387 7.46 98.6387 7.748 99.6947 8.324C100.775 8.876 101.615 9.608 102.215 10.52C102.815 11.432 103.115 12.392 103.115 13.4V24.92L105.275 25.46V26H100.595C98.4347 26 97.3547 24.92 97.3547 22.76V13.4C97.3547 11.888 97.0787 10.736 96.5267 9.944C95.9987 9.128 95.3747 8.72 94.6547 8.72C93.7427 8.72 92.9267 9.2 92.2067 10.16C91.8947 10.568 91.6307 11.048 91.4147 11.6V24.92L93.5747 25.46V26H83.4947V25.46Z" fill="#1E1E1E"/>
<path d="M114.456 26.54C112.32 26.54 110.676 26.084 109.524 25.172C108.372 24.26 107.796 23.096 107.796 21.68C107.796 20.744 108 19.82 108.408 18.908C108.576 18.476 108.792 18.08 109.056 17.72C110.04 17.48 111.108 17.264 112.26 17.072C114.852 16.64 117.144 16.376 119.136 16.28V15.2C119.136 12.536 118.812 10.7 118.164 9.692C117.516 8.684 116.52 8.18 115.176 8.18C114.672 8.18 114.24 8.24 113.88 8.36L113.376 8.54V13.94L112.908 14.048C112.524 14.096 112.2 14.12 111.936 14.12C111.12 14.12 110.46 13.88 109.956 13.4C109.476 12.896 109.236 12.236 109.236 11.42C109.236 10.316 109.788 9.38 110.892 8.612C112.02 7.844 113.688 7.46 115.896 7.46C117.768 7.46 119.376 7.796 120.72 8.468C122.088 9.116 123.12 10.028 123.816 11.204C124.536 12.356 124.896 13.688 124.896 15.2V24.92L127.056 25.46V26H123.816C122.376 26 121.26 25.556 120.468 24.668C120.132 24.308 119.868 23.852 119.676 23.3C119.34 23.9 118.944 24.44 118.488 24.92C117.408 26 116.064 26.54 114.456 26.54ZM115.896 25.28C116.784 25.28 117.588 24.8 118.308 23.84C118.572 23.48 118.848 23 119.136 22.4V17.18C118.032 17.18 116.976 17.24 115.968 17.36C115.224 17.456 114.72 17.516 114.456 17.54C114.336 17.804 114.216 18.164 114.096 18.62C113.856 19.532 113.736 20.432 113.736 21.32C113.736 22.664 113.94 23.66 114.348 24.308C114.756 24.956 115.272 25.28 115.896 25.28Z" fill="#1E1E1E"/>
<path d="M129.233 25.46L131.393 24.92V9.08L129.233 8.54V8H132.473C133.889 8 135.005 8.456 135.821 9.368C136.133 9.728 136.397 10.172 136.613 10.7C136.949 10.076 137.345 9.536 137.801 9.08C138.881 8 140.225 7.46 141.833 7.46C143.177 7.46 144.377 7.748 145.433 8.324C146.513 8.876 147.353 9.608 147.953 10.52C148.553 11.432 148.853 12.392 148.853 13.4V24.92L151.013 25.46V26H146.333C144.173 26 143.093 24.92 143.093 22.76V13.4C143.093 11.888 142.817 10.736 142.265 9.944C141.737 9.128 141.113 8.72 140.393 8.72C139.481 8.72 138.665 9.2 137.945 10.16C137.633 10.568 137.369 11.048 137.153 11.6V24.92L139.313 25.46V26H129.233V25.46Z" fill="#1E1E1E"/>
<path d="M160.554 26.54C159.138 26.54 157.878 26.18 156.774 25.46C155.67 24.716 154.794 23.636 154.146 22.22C153.498 20.78 153.174 19.04 153.174 17C153.174 13.928 153.882 11.576 155.298 9.944C156.738 8.288 158.67 7.46 161.094 7.46C162.246 7.46 163.254 7.7 164.118 8.18C164.478 8.348 164.85 8.588 165.234 8.9V1.88L163.074 1.34V0.800002H167.754C169.914 0.800002 170.994 1.88 170.994 4.04V24.92L173.154 25.46V26H169.914C168.474 26 167.358 25.556 166.566 24.668C166.23 24.308 165.966 23.852 165.774 23.3C165.462 23.9 165.066 24.44 164.586 24.92C163.506 26 162.162 26.54 160.554 26.54ZM161.994 25.28C162.882 25.28 163.686 24.8 164.406 23.84C164.67 23.48 164.946 23 165.234 22.4V9.98C164.97 9.716 164.694 9.476 164.406 9.26C163.758 8.78 163.134 8.54 162.534 8.54C161.502 8.54 160.698 9.14 160.122 10.34C159.57 11.54 159.294 13.76 159.294 17C159.294 20.096 159.546 22.256 160.05 23.48C160.578 24.68 161.226 25.28 161.994 25.28Z" fill="#1E1E1E"/>
</svg>
